# xmcd
#
# Track frame offsets: 
#        150
#        17913
#        37237
#        73004
#        87918
#        107801
#        128986
#        148963
#        175554
#        197275
#        220076
#        240366
#        258782
#        278152
#        293073
#        308059
#        325642
#
# Disc length: 4598 seconds
#
# Revision: 0
# Processed by: cddbd v1.5.1PL0 Copyright (c) Steve Scherf et al.
# Submitted via: ExactAudioCopy v0.95a5
#
DISCID=f111f411
DTITLE=刀郎 - 2002年的第一场雪
DYEAR=1900
DGENRE=
TTITLE0=2002年的第一场雪
TTITLE1=冲动的惩罚
TTITLE2=情人
TTITLE3=吐鲁番的葡萄熟了
TTITLE4=雨中飘荡的回忆
TTITLE5=驼铃
TTITLE6=花儿为什么这样红
TTITLE7=新阿瓦尔古丽
TTITLE8=怀念战友
TTITLE9=草原之夜
TTITLE10=敖包相会
TTITLE11=虹彩妹妹
TTITLE12=萨拉姆毛主席
TTITLE13=新疆好
TTITLE14=艾里莆与赛乃姆
TTITLE15=祝酒歌
TTITLE16=哪里来的骆驼队
EXTD=
EXTT0=
EXTT1=
EXTT2=
EXTT3=
EXTT4=
EXTT5=
EXTT6=
EXTT7=
EXTT8=
EXTT9=
EXTT10=
EXTT11=
EXTT12=
EXTT13=
EXTT14=
EXTT15=
EXTT16=
PLAYORDER=
